<svg width="165" height="56" viewBox="0 0 165 56" fill="none" xmlns="http://www.w3.org/2000/svg">
<path d="M26.4038 0.895271C11.8214 0.895271 9.96682e-05 12.6517 9.94953e-05 27.1539C9.93223e-05 41.6561 11.8214 53.4125 26.4038 53.4125C26.4038 53.4125 26.4038 41.6561 26.4038 27.1539C26.4038 12.6517 26.4038 0.895271 26.4038 0.895271Z" fill="#2F2D2E"/>
<path d="M39.4604 0.895233C32.2494 0.895233 26.4037 6.74095 26.4037 13.952C26.4037 21.1631 32.2494 27.0088 39.4604 27.0088C39.4604 27.0088 39.4604 21.1631 39.4604 13.952C39.4604 6.74095 39.4604 0.895233 39.4604 0.895233Z" fill="#2F2D2E"/>
<path d="M57.6553 24.6013C56.4328 24.6013 55.2954 24.3924 54.2432 23.9746C53.2063 23.5413 52.2933 22.9378 51.5041 22.164C50.7304 21.3903 50.1269 20.4928 49.6936 19.4714C49.2603 18.4346 49.0437 17.3205 49.0437 16.1289C49.0437 14.9373 49.2603 13.8309 49.6936 12.8096C50.1269 11.7728 50.7304 10.8752 51.5041 10.117C52.2779 9.35872 53.1831 8.77068 54.2199 8.35286C55.2722 7.91957 56.4096 7.70293 57.6321 7.70293C58.932 7.70293 60.0849 7.91184 61.0907 8.32965C62.112 8.74747 63.0018 9.32003 63.7601 10.0473L61.3228 12.5078C60.8895 12.0436 60.3634 11.6799 59.7444 11.4169C59.1409 11.1538 58.4368 11.0223 57.6321 11.0223C56.9203 11.0223 56.2626 11.146 55.6591 11.3936C55.071 11.6258 54.5604 11.9662 54.1271 12.415C53.7093 12.8637 53.3766 13.4054 53.129 14.0398C52.8969 14.6743 52.7808 15.3706 52.7808 16.1289C52.7808 16.9026 52.8969 17.6067 53.129 18.2412C53.3766 18.8757 53.7093 19.4173 54.1271 19.866C54.5604 20.3148 55.071 20.663 55.6591 20.9106C56.2626 21.1582 56.9203 21.282 57.6321 21.282C58.4677 21.282 59.1951 21.1504 59.814 20.8874C60.433 20.6243 60.9669 20.2606 61.4157 19.7964L63.8762 22.2569C63.0869 22.9842 62.1817 23.5568 61.1603 23.9746C60.1545 24.3924 58.9861 24.6013 57.6553 24.6013Z" fill="#2F2D2E"/>
<path d="M70.7402 24.6013C69.5796 24.6013 68.5273 24.346 67.5834 23.8353C66.6549 23.3092 65.9198 22.5973 65.3782 21.6998C64.8366 20.8023 64.5658 19.7964 64.5658 18.6822C64.5658 17.568 64.8366 16.5699 65.3782 15.6879C65.9198 14.8058 66.6549 14.1095 67.5834 13.5988C68.5119 13.0726 69.5641 12.8096 70.7402 12.8096C71.9163 12.8096 72.9686 13.0649 73.897 13.5756C74.8255 14.0862 75.5606 14.7903 76.1022 15.6879C76.6438 16.5699 76.9146 17.568 76.9146 18.6822C76.9146 19.7964 76.6438 20.8023 76.1022 21.6998C75.5606 22.5973 74.8255 23.3092 73.897 23.8353C72.9686 24.346 71.9163 24.6013 70.7402 24.6013ZM70.7402 21.3748C71.2509 21.3748 71.6996 21.2665 72.0865 21.0499C72.4734 20.8177 72.7674 20.5005 72.9686 20.0982C73.1852 19.6803 73.2935 19.2084 73.2935 18.6822C73.2935 18.1561 73.1852 17.6996 72.9686 17.3127C72.7519 16.9104 72.4502 16.6009 72.0633 16.3842C71.6919 16.1521 71.2509 16.0361 70.7402 16.0361C70.245 16.0361 69.804 16.1521 69.4171 16.3842C69.0303 16.6009 68.7285 16.9104 68.5119 17.3127C68.2952 17.7151 68.1869 18.1793 68.1869 18.7054C68.1869 19.2161 68.2952 19.6803 68.5119 20.0982C68.7285 20.5005 69.0303 20.8177 69.4171 21.0499C69.804 21.2665 70.245 21.3748 70.7402 21.3748Z" fill="#2F2D2E"/>
<path d="M86.1338 24.346V17.9162C86.1338 17.3282 85.9481 16.8562 85.5767 16.5003C85.2208 16.1289 84.7643 15.9432 84.2072 15.9432C83.8203 15.9432 83.4799 16.0283 83.1859 16.1985C82.8918 16.3533 82.6597 16.5854 82.4895 16.8949C82.3193 17.1889 82.2342 17.5294 82.2342 17.9162L80.8647 17.2431C80.8647 16.361 81.0581 15.5873 81.445 14.9219C81.8318 14.2565 82.3657 13.7458 83.0466 13.3899C83.7429 13.0185 84.5244 12.8328 85.391 12.8328C86.2266 12.8328 86.9617 13.034 87.5961 13.4363C88.2461 13.8232 88.7568 14.3416 89.1281 14.9915C89.4995 15.6414 89.6852 16.3533 89.6852 17.127V24.346H86.1338ZM78.6827 24.346V13.0649H82.2342V24.346H78.6827Z" fill="#2F2D2E"/>
<path d="M96.0747 24.6245C95.4093 24.6245 94.7516 24.5394 94.1017 24.3692C93.4672 24.199 92.8714 23.9591 92.3144 23.6496C91.7727 23.3246 91.3085 22.9532 90.9216 22.5354L92.9411 20.4928C93.3125 20.8951 93.7535 21.2123 94.2642 21.4445C94.7748 21.6611 95.3319 21.7694 95.9354 21.7694C96.3533 21.7694 96.6705 21.7075 96.8871 21.5837C97.1193 21.4599 97.2353 21.2897 97.2353 21.0731C97.2353 20.7945 97.096 20.5856 96.8175 20.4463C96.5544 20.2916 96.214 20.1601 95.7962 20.0517C95.3783 19.9279 94.9373 19.7964 94.4731 19.6571C94.0088 19.5179 93.5678 19.3244 93.15 19.0768C92.7322 18.8292 92.3917 18.4888 92.1287 18.0555C91.8656 17.6067 91.7341 17.0419 91.7341 16.361C91.7341 15.6337 91.9198 15.007 92.2911 14.4808C92.6625 13.9392 93.1887 13.5137 93.8696 13.2042C94.5505 12.8947 95.3474 12.7399 96.2604 12.7399C97.2198 12.7399 98.1019 12.9102 98.9066 13.2506C99.7267 13.5756 100.392 14.063 100.903 14.713L98.8834 16.7556C98.5275 16.3378 98.1251 16.0438 97.6763 15.8736C97.243 15.7033 96.8175 15.6182 96.3997 15.6182C95.9973 15.6182 95.6956 15.6801 95.4944 15.8039C95.2932 15.9123 95.1927 16.0747 95.1927 16.2914C95.1927 16.5235 95.3242 16.7092 95.5873 16.8485C95.8503 16.9877 96.1908 17.1115 96.6086 17.2199C97.0264 17.3282 97.4674 17.4597 97.9317 17.6145C98.3959 17.7692 98.8369 17.9781 99.2548 18.2412C99.6726 18.5043 100.013 18.8602 100.276 19.309C100.539 19.7422 100.671 20.3148 100.671 21.0266C100.671 22.1253 100.253 22.9997 99.4172 23.6496C98.5971 24.2995 97.4829 24.6245 96.0747 24.6245Z" fill="#2F2D2E"/>
<path d="M107.611 24.6013C106.574 24.6013 105.654 24.3924 104.849 23.9746C104.06 23.5413 103.441 22.9532 102.992 22.2105C102.543 21.4522 102.319 20.5856 102.319 19.6107V13.0649H105.87V19.5643C105.87 19.9512 105.932 20.2839 106.056 20.5624C106.195 20.8409 106.397 21.0576 106.66 21.2123C106.923 21.3671 107.24 21.4445 107.611 21.4445C108.137 21.4445 108.555 21.282 108.865 20.957C109.174 20.6166 109.329 20.1523 109.329 19.5643V13.0649H112.88V19.5875C112.88 20.5779 112.656 21.4522 112.207 22.2105C111.758 22.9532 111.14 23.5413 110.35 23.9746C109.561 24.3924 108.648 24.6013 107.611 24.6013Z" fill="#2F2D2E"/>
<path d="M115.11 24.346V7.49402H118.662V24.346H115.11Z" fill="#2F2D2E"/>
<path d="M122.764 24.346V8.39929H126.316V24.346H122.764ZM120.211 16.0825V13.0649H128.869V16.0825H120.211Z" fill="#2F2D2E"/>
<path d="M134.919 24.5781C133.882 24.5781 132.954 24.3228 132.134 23.8121C131.329 23.3014 130.687 22.6051 130.207 21.723C129.743 20.8409 129.511 19.8351 129.511 18.7054C129.511 17.5758 129.743 16.5699 130.207 15.6879C130.687 14.8058 131.329 14.1095 132.134 13.5988C132.954 13.0881 133.882 12.8328 134.919 12.8328C135.677 12.8328 136.358 12.9798 136.962 13.2738C137.581 13.5678 138.084 13.9779 138.471 14.5041C138.857 15.0147 139.074 15.6028 139.121 16.2682V21.1427C139.074 21.8081 138.857 22.4039 138.471 22.93C138.099 23.4407 137.604 23.843 136.985 24.1371C136.366 24.4311 135.677 24.5781 134.919 24.5781ZM135.639 21.3748C136.397 21.3748 137.008 21.1272 137.472 20.632C137.937 20.1214 138.169 19.4792 138.169 18.7054C138.169 18.1793 138.061 17.7151 137.844 17.3127C137.643 16.9104 137.349 16.6009 136.962 16.3842C136.59 16.1521 136.157 16.0361 135.662 16.0361C135.167 16.0361 134.726 16.1521 134.339 16.3842C133.967 16.6009 133.666 16.9104 133.434 17.3127C133.217 17.7151 133.109 18.1793 133.109 18.7054C133.109 19.2161 133.217 19.6726 133.434 20.0749C133.65 20.4773 133.952 20.7945 134.339 21.0266C134.726 21.2588 135.159 21.3748 135.639 21.3748ZM138.03 24.346V21.3052L138.563 18.5662L138.03 15.8271V13.0649H141.511V24.346H138.03Z" fill="#2F2D2E"/>
<path d="M151.463 24.346V17.9162C151.463 17.3282 151.277 16.8562 150.906 16.5003C150.55 16.1289 150.094 15.9432 149.536 15.9432C149.15 15.9432 148.809 16.0283 148.515 16.1985C148.221 16.3533 147.989 16.5854 147.819 16.8949C147.649 17.1889 147.563 17.5294 147.563 17.9162L146.194 17.2431C146.194 16.361 146.387 15.5873 146.774 14.9219C147.161 14.2565 147.695 13.7458 148.376 13.3899C149.072 13.0185 149.854 12.8328 150.72 12.8328C151.556 12.8328 152.291 13.034 152.925 13.4363C153.575 13.8232 154.086 14.3416 154.457 14.9915C154.829 15.6414 155.014 16.3533 155.014 17.127V24.346H151.463ZM144.012 24.346V13.0649H147.563V24.346H144.012Z" fill="#2F2D2E"/>
<path d="M158.761 24.346V8.39929H162.312V24.346H158.761ZM156.208 16.0825V13.0649H164.866V16.0825H156.208Z" fill="#2F2D2E"/>
<path d="M48.8148 50.6013C47.5923 50.6013 46.4549 50.3924 45.4026 49.9746C44.3658 49.5413 43.4528 48.9378 42.6636 48.164C41.8899 47.3903 41.2864 46.4928 40.8531 45.4714C40.4198 44.4346 40.2031 43.3205 40.2031 42.1289C40.2031 40.9374 40.4198 39.8309 40.8531 38.8096C41.2864 37.7728 41.8899 36.8752 42.6636 36.117C43.4373 35.3587 44.3426 34.7707 45.3794 34.3529C46.4317 33.9196 47.5691 33.7029 48.7916 33.7029C50.0915 33.7029 51.2443 33.9118 52.2502 34.3297C53.2715 34.7475 54.1613 35.32 54.9196 36.0473L52.4823 38.5078C52.049 38.0436 51.5229 37.6799 50.9039 37.4169C50.3004 37.1538 49.5963 37.0223 48.7916 37.0223C48.0797 37.0223 47.4221 37.146 46.8186 37.3936C46.2305 37.6258 45.7199 37.9662 45.2866 38.415C44.8687 38.8637 44.536 39.4054 44.2884 40.0398C44.0563 40.6743 43.9403 41.3706 43.9403 42.1289C43.9403 42.9026 44.0563 43.6067 44.2884 44.2412C44.536 44.8757 44.8687 45.4173 45.2866 45.866C45.7199 46.3148 46.2305 46.663 46.8186 46.9106C47.4221 47.1582 48.0797 47.282 48.7916 47.282C49.6272 47.282 50.3545 47.1504 50.9735 46.8874C51.5925 46.6243 52.1264 46.2606 52.5751 45.7964L55.0356 48.2569C54.2464 48.9842 53.3411 49.5568 52.3198 49.9746C51.314 50.3924 50.1456 50.6013 48.8148 50.6013Z" fill="#2F2D2E"/>
<path d="M61.8997 50.6013C60.7391 50.6013 59.6868 50.346 58.7428 49.8353C57.8144 49.3092 57.0793 48.5973 56.5377 47.6998C55.9961 46.8023 55.7253 45.7964 55.7253 44.6822C55.7253 43.5681 55.9961 42.5699 56.5377 41.6879C57.0793 40.8058 57.8144 40.1095 58.7428 39.5988C59.6713 39.0726 60.7236 38.8096 61.8997 38.8096C63.0758 38.8096 64.128 39.0649 65.0565 39.5756C65.985 40.0862 66.7201 40.7903 67.2617 41.6879C67.8033 42.5699 68.0741 43.5681 68.0741 44.6822C68.0741 45.7964 67.8033 46.8023 67.2617 47.6998C66.7201 48.5973 65.985 49.3092 65.0565 49.8353C64.128 50.346 63.0758 50.6013 61.8997 50.6013ZM61.8997 47.3748C62.4103 47.3748 62.8591 47.2665 63.246 47.0499C63.6328 46.8177 63.9269 46.5005 64.128 46.0982C64.3447 45.6803 64.453 45.2084 64.453 44.6822C64.453 44.1561 64.3447 43.6996 64.128 43.3127C63.9114 42.9104 63.6096 42.6009 63.2228 42.3842C62.8514 42.1521 62.4103 42.0361 61.8997 42.0361C61.4045 42.0361 60.9635 42.1521 60.5766 42.3842C60.1897 42.6009 59.888 42.9104 59.6713 43.3127C59.4547 43.7151 59.3464 44.1793 59.3464 44.7054C59.3464 45.2161 59.4547 45.6803 59.6713 46.0982C59.888 46.5005 60.1897 46.8177 60.5766 47.0499C60.9635 47.2665 61.4045 47.3748 61.8997 47.3748Z" fill="#2F2D2E"/>
<path d="M69.8422 50.346V39.0649H73.3936V50.346H69.8422ZM77.0611 50.346V43.7537C77.0611 43.1812 76.8832 42.7402 76.5273 42.4307C76.1868 42.1057 75.7613 41.9432 75.2506 41.9432C74.8947 41.9432 74.5775 42.0206 74.2989 42.1753C74.0204 42.3146 73.796 42.5158 73.6258 42.7788C73.471 43.0419 73.3936 43.3669 73.3936 43.7537L72.0241 43.1502C72.0241 42.2527 72.2176 41.4867 72.6044 40.8522C72.9913 40.2023 73.5174 39.7071 74.1828 39.3667C74.8483 39.0107 75.5988 38.8328 76.4344 38.8328C77.2236 38.8328 77.9277 39.0107 78.5467 39.3667C79.1812 39.7226 79.6841 40.2178 80.0555 40.8522C80.4269 41.4867 80.6126 42.245 80.6126 43.127V50.346H77.0611ZM84.2801 50.346V43.7537C84.2801 43.1812 84.1021 42.7402 83.7462 42.4307C83.4058 42.1057 82.9802 41.9432 82.4695 41.9432C82.1136 41.9432 81.7964 42.0206 81.5179 42.1753C81.2393 42.3146 81.0149 42.5158 80.8447 42.7788C80.69 43.0419 80.6126 43.3669 80.6126 43.7537L78.5699 43.4752C78.6009 42.5158 78.8253 41.6956 79.2431 41.0147C79.6764 40.3184 80.2412 39.7845 80.9376 39.4131C81.6494 39.0262 82.4463 38.8328 83.3284 38.8328C84.195 38.8328 84.961 39.0185 85.6264 39.3899C86.3073 39.7458 86.8412 40.2642 87.228 40.9451C87.6304 41.6105 87.8315 42.4152 87.8315 43.3591V50.346H84.2801Z" fill="#2F2D2E"/>
<path d="M90.1074 50.346V39.0649H93.6588V50.346H90.1074ZM97.3263 50.346V43.7537C97.3263 43.1812 97.1484 42.7402 96.7925 42.4307C96.452 42.1057 96.0265 41.9432 95.5158 41.9432C95.1599 41.9432 94.8427 42.0206 94.5641 42.1753C94.2856 42.3146 94.0612 42.5158 93.891 42.7788C93.7362 43.0419 93.6588 43.3669 93.6588 43.7537L92.2893 43.1502C92.2893 42.2527 92.4828 41.4867 92.8696 40.8522C93.2565 40.2023 93.7826 39.7071 94.4481 39.3667C95.1135 39.0107 95.864 38.8328 96.6996 38.8328C97.4888 38.8328 98.1929 39.0107 98.8119 39.3667C99.4464 39.7226 99.9493 40.2178 100.321 40.8522C100.692 41.4867 100.878 42.245 100.878 43.127V50.346H97.3263ZM104.545 50.346V43.7537C104.545 43.1812 104.367 42.7402 104.011 42.4307C103.671 42.1057 103.245 41.9432 102.735 41.9432C102.379 41.9432 102.062 42.0206 101.783 42.1753C101.505 42.3146 101.28 42.5158 101.11 42.7788C100.955 43.0419 100.878 43.3669 100.878 43.7537L98.8351 43.4752C98.8661 42.5158 99.0905 41.6956 99.5083 41.0147C99.9416 40.3184 100.506 39.7845 101.203 39.4131C101.915 39.0262 102.712 38.8328 103.594 38.8328C104.46 38.8328 105.226 39.0185 105.892 39.3899C106.572 39.7458 107.106 40.2642 107.493 40.9451C107.896 41.6105 108.097 42.4152 108.097 43.3591V50.346H104.545Z" fill="#2F2D2E"/>
<path d="M115.386 50.6013C114.35 50.6013 113.429 50.3924 112.624 49.9746C111.835 49.5413 111.216 48.9532 110.767 48.2105C110.318 47.4522 110.094 46.5856 110.094 45.6107V39.0649H113.646V45.5643C113.646 45.9512 113.707 46.2839 113.831 46.5624C113.97 46.8409 114.172 47.0576 114.435 47.2123C114.698 47.3671 115.015 47.4445 115.386 47.4445C115.913 47.4445 116.33 47.282 116.64 46.957C116.949 46.6166 117.104 46.1523 117.104 45.5643V39.0649H120.656V45.5875C120.656 46.5779 120.431 47.4522 119.982 48.2105C119.534 48.9532 118.915 49.5413 118.125 49.9746C117.336 50.3924 116.423 50.6013 115.386 50.6013Z" fill="#2F2D2E"/>
<path d="M130.336 50.346V43.9162C130.336 43.3282 130.151 42.8562 129.779 42.5003C129.423 42.1289 128.967 41.9432 128.41 41.9432C128.023 41.9432 127.683 42.0283 127.388 42.1985C127.094 42.3533 126.862 42.5854 126.692 42.8949C126.522 43.1889 126.437 43.5294 126.437 43.9162L125.067 43.2431C125.067 42.361 125.261 41.5873 125.648 40.9219C126.034 40.2565 126.568 39.7458 127.249 39.3899C127.946 39.0185 128.727 38.8328 129.594 38.8328C130.429 38.8328 131.164 39.034 131.799 39.4363C132.449 39.8232 132.959 40.3416 133.331 40.9915C133.702 41.6414 133.888 42.3533 133.888 43.127V50.346H130.336ZM122.885 50.346V39.0649H126.437V50.346H122.885Z" fill="#2F2D2E"/>
<path d="M136.169 50.346V39.0649H139.72V50.346H136.169ZM137.956 37.5097C137.399 37.5097 136.935 37.324 136.563 36.9526C136.207 36.5657 136.03 36.1015 136.03 35.5599C136.03 35.0028 136.207 34.5386 136.563 34.1672C136.935 33.7958 137.399 33.6101 137.956 33.6101C138.513 33.6101 138.97 33.7958 139.326 34.1672C139.682 34.5386 139.86 35.0028 139.86 35.5599C139.86 36.1015 139.682 36.5657 139.326 36.9526C138.97 37.324 138.513 37.5097 137.956 37.5097Z" fill="#2F2D2E"/>
<path d="M143.823 50.346V34.3993H147.374V50.346H143.823ZM141.269 42.0825V39.0649H149.928V42.0825H141.269Z" fill="#2F2D2E"/>
<path d="M154.974 50.3924L150.332 39.0649H154.162L157.11 48.048H155.694L158.711 39.0649H162.541L157.713 50.3924H154.974ZM152.073 55.1044L155.462 47.7926L157.713 50.3924L155.717 55.1044H152.073Z" fill="#2F2D2E"/>
</svg>
